<mxfile host="app.diagrams.net" modified="2024-03-04T19:22:34.864Z" agent="Mozilla/5.0 (Windows NT 10.0; Win64; x64) AppleWebKit/537.36 (KHTML, like Gecko) Chrome/122.0.0.0 Safari/537.36" etag="UlA0m3o57txQ_As-Op01" version="24.0.1" type="google">
  <diagram name="‫עמוד-1‬" id="OzJpb_rJLoAU1jeJkxIn">
    <mxGraphModel grid="1" page="1" gridSize="10" guides="1" tooltips="1" connect="1" arrows="1" fold="1" pageScale="1" pageWidth="827" pageHeight="1169" math="0" shadow="0">
      <root>
        <mxCell id="0" />
        <mxCell id="1" parent="0" />
        <mxCell id="c6fzyAOVtFj8KL9Nxf8r-12" value="" style="edgeStyle=orthogonalEdgeStyle;rounded=0;orthogonalLoop=1;jettySize=auto;html=1;" edge="1" parent="1" source="c6fzyAOVtFj8KL9Nxf8r-2" target="c6fzyAOVtFj8KL9Nxf8r-6">
          <mxGeometry relative="1" as="geometry" />
        </mxCell>
        <mxCell id="c6fzyAOVtFj8KL9Nxf8r-2" value="" style="verticalLabelPosition=bottom;verticalAlign=top;html=1;shape=card;whiteSpace=wrap;size=20;arcSize=12;fillColor=#d5e8d4;strokeColor=#82b366;" vertex="1" parent="1">
          <mxGeometry x="330" y="-920" width="140" height="100" as="geometry" />
        </mxCell>
        <mxCell id="c6fzyAOVtFj8KL9Nxf8r-10" value="" style="edgeStyle=orthogonalEdgeStyle;rounded=0;orthogonalLoop=1;jettySize=auto;html=1;" edge="1" parent="1" source="c6fzyAOVtFj8KL9Nxf8r-3" target="c6fzyAOVtFj8KL9Nxf8r-4">
          <mxGeometry relative="1" as="geometry">
            <Array as="points">
              <mxPoint x="400" y="-970" />
              <mxPoint x="400" y="-970" />
            </Array>
          </mxGeometry>
        </mxCell>
        <mxCell id="c6fzyAOVtFj8KL9Nxf8r-3" value="start" style="ellipse;whiteSpace=wrap;html=1;fontSize=19;fillColor=#ffe6cc;strokeColor=#d79b00;" vertex="1" parent="1">
          <mxGeometry x="340" y="-1120" width="130" height="130" as="geometry" />
        </mxCell>
        <mxCell id="c6fzyAOVtFj8KL9Nxf8r-4" value="number = xyz" style="text;html=1;align=center;verticalAlign=middle;whiteSpace=wrap;rounded=0;fontSize=17;" vertex="1" parent="1">
          <mxGeometry x="347.5" y="-920" width="105" height="62.5" as="geometry" />
        </mxCell>
        <mxCell id="c6fzyAOVtFj8KL9Nxf8r-13" value="" style="edgeStyle=orthogonalEdgeStyle;rounded=0;orthogonalLoop=1;jettySize=auto;html=1;" edge="1" parent="1" source="c6fzyAOVtFj8KL9Nxf8r-6" target="c6fzyAOVtFj8KL9Nxf8r-8">
          <mxGeometry relative="1" as="geometry" />
        </mxCell>
        <mxCell id="c6fzyAOVtFj8KL9Nxf8r-6" value="meot = (number/100) (int)" style="rounded=1;whiteSpace=wrap;html=1;fontSize=17;fillColor=#e1d5e7;strokeColor=#9673a6;" vertex="1" parent="1">
          <mxGeometry x="297.5" y="-770" width="205" height="80" as="geometry" />
        </mxCell>
        <mxCell id="c6fzyAOVtFj8KL9Nxf8r-14" value="" style="edgeStyle=orthogonalEdgeStyle;rounded=0;orthogonalLoop=1;jettySize=auto;html=1;exitX=0.492;exitY=0.875;exitDx=0;exitDy=0;exitPerimeter=0;" edge="1" parent="1" source="c6fzyAOVtFj8KL9Nxf8r-8" target="c6fzyAOVtFj8KL9Nxf8r-9">
          <mxGeometry relative="1" as="geometry">
            <Array as="points">
              <mxPoint x="400" y="-470" />
            </Array>
          </mxGeometry>
        </mxCell>
        <mxCell id="c6fzyAOVtFj8KL9Nxf8r-8" value="meot" style="shape=document;whiteSpace=wrap;html=1;boundedLbl=1;fontSize=17;fillColor=#fff2cc;strokeColor=#d6b656;" vertex="1" parent="1">
          <mxGeometry x="340" y="-620" width="120" height="80" as="geometry" />
        </mxCell>
        <mxCell id="c6fzyAOVtFj8KL9Nxf8r-9" value="stop" style="ellipse;whiteSpace=wrap;html=1;fontSize=19;fillColor=#ffe6cc;strokeColor=#d79b00;" vertex="1" parent="1">
          <mxGeometry x="330" y="-450" width="130" height="130" as="geometry" />
        </mxCell>
        <mxCell id="c6fzyAOVtFj8KL9Nxf8r-15" value="Page 15 ex 7" style="text;html=1;align=center;verticalAlign=middle;whiteSpace=wrap;rounded=0;fontSize=20;fontStyle=1" vertex="1" parent="1">
          <mxGeometry x="30" y="-1120" width="150" height="50" as="geometry" />
        </mxCell>
        <mxCell id="c6fzyAOVtFj8KL9Nxf8r-36" value="" style="edgeStyle=orthogonalEdgeStyle;rounded=0;orthogonalLoop=1;jettySize=auto;html=1;" edge="1" parent="1" source="c6fzyAOVtFj8KL9Nxf8r-37" target="c6fzyAOVtFj8KL9Nxf8r-42">
          <mxGeometry relative="1" as="geometry" />
        </mxCell>
        <mxCell id="c6fzyAOVtFj8KL9Nxf8r-37" value="" style="verticalLabelPosition=bottom;verticalAlign=top;html=1;shape=card;whiteSpace=wrap;size=20;arcSize=12;fillColor=#d5e8d4;strokeColor=#82b366;" vertex="1" parent="1">
          <mxGeometry x="325" width="140" height="100" as="geometry" />
        </mxCell>
        <mxCell id="c6fzyAOVtFj8KL9Nxf8r-38" value="" style="edgeStyle=orthogonalEdgeStyle;rounded=0;orthogonalLoop=1;jettySize=auto;html=1;" edge="1" parent="1" source="c6fzyAOVtFj8KL9Nxf8r-39" target="c6fzyAOVtFj8KL9Nxf8r-40">
          <mxGeometry relative="1" as="geometry">
            <Array as="points">
              <mxPoint x="395" y="-50" />
              <mxPoint x="395" y="-50" />
            </Array>
          </mxGeometry>
        </mxCell>
        <mxCell id="c6fzyAOVtFj8KL9Nxf8r-39" value="start" style="ellipse;whiteSpace=wrap;html=1;fontSize=19;fillColor=#ffe6cc;strokeColor=#d79b00;" vertex="1" parent="1">
          <mxGeometry x="335" y="-200" width="130" height="130" as="geometry" />
        </mxCell>
        <mxCell id="c6fzyAOVtFj8KL9Nxf8r-40" value="number = xy" style="text;html=1;align=center;verticalAlign=middle;whiteSpace=wrap;rounded=0;fontSize=17;" vertex="1" parent="1">
          <mxGeometry x="342.5" width="105" height="62.5" as="geometry" />
        </mxCell>
        <mxCell id="c6fzyAOVtFj8KL9Nxf8r-41" value="" style="edgeStyle=orthogonalEdgeStyle;rounded=0;orthogonalLoop=1;jettySize=auto;html=1;" edge="1" parent="1" source="c6fzyAOVtFj8KL9Nxf8r-42" target="c6fzyAOVtFj8KL9Nxf8r-44">
          <mxGeometry relative="1" as="geometry" />
        </mxCell>
        <mxCell id="c6fzyAOVtFj8KL9Nxf8r-42" value="sum= x+y" style="rounded=1;whiteSpace=wrap;html=1;fontSize=17;fillColor=#e1d5e7;strokeColor=#9673a6;" vertex="1" parent="1">
          <mxGeometry x="292.5" y="150" width="205" height="80" as="geometry" />
        </mxCell>
        <mxCell id="c6fzyAOVtFj8KL9Nxf8r-43" value="" style="edgeStyle=orthogonalEdgeStyle;rounded=0;orthogonalLoop=1;jettySize=auto;html=1;exitX=0.492;exitY=0.875;exitDx=0;exitDy=0;exitPerimeter=0;" edge="1" parent="1" source="c6fzyAOVtFj8KL9Nxf8r-44" target="c6fzyAOVtFj8KL9Nxf8r-45">
          <mxGeometry relative="1" as="geometry">
            <Array as="points">
              <mxPoint x="395" y="450" />
            </Array>
          </mxGeometry>
        </mxCell>
        <mxCell id="c6fzyAOVtFj8KL9Nxf8r-44" value="sum" style="shape=document;whiteSpace=wrap;html=1;boundedLbl=1;fontSize=17;fillColor=#fff2cc;strokeColor=#d6b656;" vertex="1" parent="1">
          <mxGeometry x="335" y="300" width="120" height="80" as="geometry" />
        </mxCell>
        <mxCell id="c6fzyAOVtFj8KL9Nxf8r-45" value="stop" style="ellipse;whiteSpace=wrap;html=1;fontSize=19;fillColor=#ffe6cc;strokeColor=#d79b00;" vertex="1" parent="1">
          <mxGeometry x="325" y="470" width="130" height="130" as="geometry" />
        </mxCell>
        <mxCell id="c6fzyAOVtFj8KL9Nxf8r-46" value="Page 15 ex 8" style="text;html=1;align=center;verticalAlign=middle;whiteSpace=wrap;rounded=0;fontSize=20;fontStyle=1" vertex="1" parent="1">
          <mxGeometry x="40" y="-200" width="150" height="50" as="geometry" />
        </mxCell>
        <mxCell id="c6fzyAOVtFj8KL9Nxf8r-47" value="" style="edgeStyle=orthogonalEdgeStyle;rounded=0;orthogonalLoop=1;jettySize=auto;html=1;" edge="1" parent="1" source="c6fzyAOVtFj8KL9Nxf8r-48" target="c6fzyAOVtFj8KL9Nxf8r-53">
          <mxGeometry relative="1" as="geometry" />
        </mxCell>
        <mxCell id="c6fzyAOVtFj8KL9Nxf8r-48" value="" style="verticalLabelPosition=bottom;verticalAlign=top;html=1;shape=card;whiteSpace=wrap;size=20;arcSize=12;fillColor=#d5e8d4;strokeColor=#82b366;" vertex="1" parent="1">
          <mxGeometry x="312.5" y="920" width="140" height="100" as="geometry" />
        </mxCell>
        <mxCell id="c6fzyAOVtFj8KL9Nxf8r-49" value="" style="edgeStyle=orthogonalEdgeStyle;rounded=0;orthogonalLoop=1;jettySize=auto;html=1;" edge="1" parent="1" source="c6fzyAOVtFj8KL9Nxf8r-50" target="c6fzyAOVtFj8KL9Nxf8r-51">
          <mxGeometry relative="1" as="geometry">
            <Array as="points">
              <mxPoint x="382.5" y="870" />
              <mxPoint x="382.5" y="870" />
            </Array>
          </mxGeometry>
        </mxCell>
        <mxCell id="c6fzyAOVtFj8KL9Nxf8r-50" value="start" style="ellipse;whiteSpace=wrap;html=1;fontSize=19;fillColor=#ffe6cc;strokeColor=#d79b00;" vertex="1" parent="1">
          <mxGeometry x="322.5" y="720" width="130" height="130" as="geometry" />
        </mxCell>
        <mxCell id="c6fzyAOVtFj8KL9Nxf8r-51" value="number = xy" style="text;html=1;align=center;verticalAlign=middle;whiteSpace=wrap;rounded=0;fontSize=17;" vertex="1" parent="1">
          <mxGeometry x="330" y="920" width="105" height="62.5" as="geometry" />
        </mxCell>
        <mxCell id="c6fzyAOVtFj8KL9Nxf8r-52" value="" style="edgeStyle=orthogonalEdgeStyle;rounded=0;orthogonalLoop=1;jettySize=auto;html=1;" edge="1" parent="1" source="c6fzyAOVtFj8KL9Nxf8r-53" target="c6fzyAOVtFj8KL9Nxf8r-55">
          <mxGeometry relative="1" as="geometry" />
        </mxCell>
        <mxCell id="c6fzyAOVtFj8KL9Nxf8r-53" value="newNum= yx" style="rounded=1;whiteSpace=wrap;html=1;fontSize=17;fillColor=#e1d5e7;strokeColor=#9673a6;" vertex="1" parent="1">
          <mxGeometry x="280" y="1070" width="205" height="80" as="geometry" />
        </mxCell>
        <mxCell id="c6fzyAOVtFj8KL9Nxf8r-54" value="" style="edgeStyle=orthogonalEdgeStyle;rounded=0;orthogonalLoop=1;jettySize=auto;html=1;exitX=0.492;exitY=0.875;exitDx=0;exitDy=0;exitPerimeter=0;" edge="1" parent="1" source="c6fzyAOVtFj8KL9Nxf8r-55" target="c6fzyAOVtFj8KL9Nxf8r-56">
          <mxGeometry relative="1" as="geometry">
            <Array as="points">
              <mxPoint x="382.5" y="1370" />
            </Array>
          </mxGeometry>
        </mxCell>
        <mxCell id="c6fzyAOVtFj8KL9Nxf8r-55" value="newNum" style="shape=document;whiteSpace=wrap;html=1;boundedLbl=1;fontSize=17;fillColor=#fff2cc;strokeColor=#d6b656;" vertex="1" parent="1">
          <mxGeometry x="322.5" y="1220" width="120" height="80" as="geometry" />
        </mxCell>
        <mxCell id="c6fzyAOVtFj8KL9Nxf8r-56" value="stop" style="ellipse;whiteSpace=wrap;html=1;fontSize=19;fillColor=#ffe6cc;strokeColor=#d79b00;" vertex="1" parent="1">
          <mxGeometry x="312.5" y="1390" width="130" height="130" as="geometry" />
        </mxCell>
        <mxCell id="c6fzyAOVtFj8KL9Nxf8r-57" value="Page 15 ex 9" style="text;html=1;align=center;verticalAlign=middle;whiteSpace=wrap;rounded=0;fontSize=20;fontStyle=1" vertex="1" parent="1">
          <mxGeometry x="40" y="720" width="150" height="50" as="geometry" />
        </mxCell>
        <mxCell id="c6fzyAOVtFj8KL9Nxf8r-58" value="" style="edgeStyle=orthogonalEdgeStyle;rounded=0;orthogonalLoop=1;jettySize=auto;html=1;" edge="1" parent="1" source="c6fzyAOVtFj8KL9Nxf8r-59">
          <mxGeometry relative="1" as="geometry">
            <mxPoint x="372.5" y="1990" as="targetPoint" />
          </mxGeometry>
        </mxCell>
        <mxCell id="c6fzyAOVtFj8KL9Nxf8r-59" value="" style="verticalLabelPosition=bottom;verticalAlign=top;html=1;shape=card;whiteSpace=wrap;size=20;arcSize=12;fillColor=#d5e8d4;strokeColor=#82b366;" vertex="1" parent="1">
          <mxGeometry x="302.5" y="1840" width="140" height="100" as="geometry" />
        </mxCell>
        <mxCell id="c6fzyAOVtFj8KL9Nxf8r-60" value="" style="edgeStyle=orthogonalEdgeStyle;rounded=0;orthogonalLoop=1;jettySize=auto;html=1;" edge="1" parent="1" source="c6fzyAOVtFj8KL9Nxf8r-61" target="c6fzyAOVtFj8KL9Nxf8r-62">
          <mxGeometry relative="1" as="geometry">
            <Array as="points">
              <mxPoint x="372.5" y="1790" />
              <mxPoint x="372.5" y="1790" />
            </Array>
          </mxGeometry>
        </mxCell>
        <mxCell id="c6fzyAOVtFj8KL9Nxf8r-61" value="start" style="ellipse;whiteSpace=wrap;html=1;fontSize=19;fillColor=#ffe6cc;strokeColor=#d79b00;" vertex="1" parent="1">
          <mxGeometry x="312.5" y="1640" width="130" height="130" as="geometry" />
        </mxCell>
        <mxCell id="c6fzyAOVtFj8KL9Nxf8r-62" value="a, b, c" style="text;html=1;align=center;verticalAlign=middle;whiteSpace=wrap;rounded=0;fontSize=17;" vertex="1" parent="1">
          <mxGeometry x="320" y="1840" width="105" height="62.5" as="geometry" />
        </mxCell>
        <mxCell id="c6fzyAOVtFj8KL9Nxf8r-67" value="stop" style="ellipse;whiteSpace=wrap;html=1;fontSize=19;fillColor=#ffe6cc;strokeColor=#d79b00;" vertex="1" parent="1">
          <mxGeometry x="292.5" y="2490" width="130" height="130" as="geometry" />
        </mxCell>
        <mxCell id="c6fzyAOVtFj8KL9Nxf8r-68" value="Page 20 ex 2" style="text;html=1;align=center;verticalAlign=middle;whiteSpace=wrap;rounded=0;fontSize=20;fontStyle=1" vertex="1" parent="1">
          <mxGeometry x="30" y="1640" width="150" height="50" as="geometry" />
        </mxCell>
        <mxCell id="c6fzyAOVtFj8KL9Nxf8r-72" style="edgeStyle=orthogonalEdgeStyle;rounded=0;orthogonalLoop=1;jettySize=auto;html=1;entryX=0.5;entryY=0;entryDx=0;entryDy=0;" edge="1" parent="1" source="c6fzyAOVtFj8KL9Nxf8r-69" target="c6fzyAOVtFj8KL9Nxf8r-71">
          <mxGeometry relative="1" as="geometry" />
        </mxCell>
        <mxCell id="c6fzyAOVtFj8KL9Nxf8r-77" style="edgeStyle=orthogonalEdgeStyle;rounded=0;orthogonalLoop=1;jettySize=auto;html=1;entryX=1;entryY=0.25;entryDx=0;entryDy=0;" edge="1" parent="1" source="c6fzyAOVtFj8KL9Nxf8r-69" target="c6fzyAOVtFj8KL9Nxf8r-76">
          <mxGeometry relative="1" as="geometry">
            <Array as="points">
              <mxPoint x="480" y="2065" />
              <mxPoint x="480" y="2350" />
              <mxPoint x="450" y="2350" />
              <mxPoint x="450" y="2353" />
            </Array>
          </mxGeometry>
        </mxCell>
        <mxCell id="c6fzyAOVtFj8KL9Nxf8r-69" value="b&amp;gt;a &amp;amp;&amp;amp; c&amp;gt;b" style="rhombus;whiteSpace=wrap;html=1;fontSize=17;fillColor=#f8cecc;strokeColor=#b85450;" vertex="1" parent="1">
          <mxGeometry x="297.5" y="1990" width="150" height="150" as="geometry" />
        </mxCell>
        <mxCell id="c6fzyAOVtFj8KL9Nxf8r-78" style="edgeStyle=orthogonalEdgeStyle;rounded=0;orthogonalLoop=1;jettySize=auto;html=1;entryX=0;entryY=0.75;entryDx=0;entryDy=0;exitX=0.531;exitY=0.867;exitDx=0;exitDy=0;exitPerimeter=0;" edge="1" parent="1" source="c6fzyAOVtFj8KL9Nxf8r-71" target="c6fzyAOVtFj8KL9Nxf8r-76">
          <mxGeometry relative="1" as="geometry">
            <Array as="points">
              <mxPoint x="175" y="2238" />
              <mxPoint x="175" y="2383" />
            </Array>
          </mxGeometry>
        </mxCell>
        <mxCell id="c6fzyAOVtFj8KL9Nxf8r-71" value="Increasing" style="shape=document;whiteSpace=wrap;html=1;boundedLbl=1;fontSize=16;fillColor=#fff2cc;strokeColor=#d6b656;" vertex="1" parent="1">
          <mxGeometry x="110" y="2160" width="130" height="90" as="geometry" />
        </mxCell>
        <mxCell id="c6fzyAOVtFj8KL9Nxf8r-79" value="" style="edgeStyle=orthogonalEdgeStyle;rounded=0;orthogonalLoop=1;jettySize=auto;html=1;" edge="1" parent="1" source="c6fzyAOVtFj8KL9Nxf8r-76" target="c6fzyAOVtFj8KL9Nxf8r-67">
          <mxGeometry relative="1" as="geometry" />
        </mxCell>
        <mxCell id="c6fzyAOVtFj8KL9Nxf8r-76" value="" style="rounded=1;whiteSpace=wrap;html=1;fillColor=#f5f5f5;fontColor=#333333;strokeColor=#666666;" vertex="1" parent="1">
          <mxGeometry x="297.5" y="2338" width="120" height="60" as="geometry" />
        </mxCell>
        <mxCell id="c6fzyAOVtFj8KL9Nxf8r-80" value="" style="edgeStyle=orthogonalEdgeStyle;rounded=0;orthogonalLoop=1;jettySize=auto;html=1;" edge="1" parent="1" source="c6fzyAOVtFj8KL9Nxf8r-81">
          <mxGeometry relative="1" as="geometry">
            <mxPoint x="335" y="3080" as="targetPoint" />
          </mxGeometry>
        </mxCell>
        <mxCell id="c6fzyAOVtFj8KL9Nxf8r-81" value="" style="verticalLabelPosition=bottom;verticalAlign=top;html=1;shape=card;whiteSpace=wrap;size=20;arcSize=12;fillColor=#d5e8d4;strokeColor=#82b366;" vertex="1" parent="1">
          <mxGeometry x="265" y="2930" width="140" height="100" as="geometry" />
        </mxCell>
        <mxCell id="c6fzyAOVtFj8KL9Nxf8r-82" value="" style="edgeStyle=orthogonalEdgeStyle;rounded=0;orthogonalLoop=1;jettySize=auto;html=1;" edge="1" parent="1" source="c6fzyAOVtFj8KL9Nxf8r-83" target="c6fzyAOVtFj8KL9Nxf8r-84">
          <mxGeometry relative="1" as="geometry">
            <Array as="points">
              <mxPoint x="335" y="2880" />
              <mxPoint x="335" y="2880" />
            </Array>
          </mxGeometry>
        </mxCell>
        <mxCell id="c6fzyAOVtFj8KL9Nxf8r-83" value="start" style="ellipse;whiteSpace=wrap;html=1;fontSize=19;fillColor=#ffe6cc;strokeColor=#d79b00;" vertex="1" parent="1">
          <mxGeometry x="275" y="2730" width="130" height="130" as="geometry" />
        </mxCell>
        <mxCell id="c6fzyAOVtFj8KL9Nxf8r-84" value="num= xyzs" style="text;html=1;align=center;verticalAlign=middle;whiteSpace=wrap;rounded=0;fontSize=17;" vertex="1" parent="1">
          <mxGeometry x="282.5" y="2948.75" width="105" height="62.5" as="geometry" />
        </mxCell>
        <mxCell id="c6fzyAOVtFj8KL9Nxf8r-85" value="stop" style="ellipse;whiteSpace=wrap;html=1;fontSize=19;fillColor=#ffe6cc;strokeColor=#d79b00;" vertex="1" parent="1">
          <mxGeometry x="570" y="4592" width="130" height="130" as="geometry" />
        </mxCell>
        <mxCell id="c6fzyAOVtFj8KL9Nxf8r-86" value="Page 20 ex 4" style="text;html=1;align=center;verticalAlign=middle;whiteSpace=wrap;rounded=0;fontSize=20;fontStyle=1" vertex="1" parent="1">
          <mxGeometry x="-7.5" y="2730" width="150" height="50" as="geometry" />
        </mxCell>
        <mxCell id="c6fzyAOVtFj8KL9Nxf8r-92" value="" style="edgeStyle=orthogonalEdgeStyle;rounded=0;orthogonalLoop=1;jettySize=auto;html=1;" edge="1" parent="1" target="c6fzyAOVtFj8KL9Nxf8r-85">
          <mxGeometry relative="1" as="geometry">
            <mxPoint x="635" y="4500" as="sourcePoint" />
          </mxGeometry>
        </mxCell>
        <mxCell id="c6fzyAOVtFj8KL9Nxf8r-101" style="edgeStyle=orthogonalEdgeStyle;rounded=0;orthogonalLoop=1;jettySize=auto;html=1;entryX=0.5;entryY=0;entryDx=0;entryDy=0;" edge="1" parent="1" source="c6fzyAOVtFj8KL9Nxf8r-95" target="c6fzyAOVtFj8KL9Nxf8r-97">
          <mxGeometry relative="1" as="geometry" />
        </mxCell>
        <mxCell id="c6fzyAOVtFj8KL9Nxf8r-95" value="num&amp;lt;10" style="rhombus;whiteSpace=wrap;html=1;fontSize=16;fillColor=#f8cecc;strokeColor=#b85450;" vertex="1" parent="1">
          <mxGeometry x="260" y="3080" width="150" height="170" as="geometry" />
        </mxCell>
        <mxCell id="c6fzyAOVtFj8KL9Nxf8r-103" style="edgeStyle=orthogonalEdgeStyle;rounded=0;orthogonalLoop=1;jettySize=auto;html=1;" edge="1" parent="1" source="c6fzyAOVtFj8KL9Nxf8r-97" target="c6fzyAOVtFj8KL9Nxf8r-102">
          <mxGeometry relative="1" as="geometry" />
        </mxCell>
        <mxCell id="c6fzyAOVtFj8KL9Nxf8r-111" style="edgeStyle=orthogonalEdgeStyle;rounded=0;orthogonalLoop=1;jettySize=auto;html=1;entryX=0.5;entryY=0;entryDx=0;entryDy=0;" edge="1" parent="1" source="c6fzyAOVtFj8KL9Nxf8r-97" target="c6fzyAOVtFj8KL9Nxf8r-104">
          <mxGeometry relative="1" as="geometry" />
        </mxCell>
        <mxCell id="c6fzyAOVtFj8KL9Nxf8r-97" value="num=10||num&amp;gt;10&amp;amp;&amp;amp;num&amp;lt;99" style="rhombus;whiteSpace=wrap;html=1;fontSize=16;fillColor=#f8cecc;strokeColor=#b85450;" vertex="1" parent="1">
          <mxGeometry x="497.5" y="3237.5" width="262.5" height="290" as="geometry" />
        </mxCell>
        <mxCell id="mO8eiZJf75P6K3L8JXbB-2" style="edgeStyle=orthogonalEdgeStyle;rounded=0;orthogonalLoop=1;jettySize=auto;html=1;" edge="1" parent="1">
          <mxGeometry relative="1" as="geometry">
            <mxPoint x="122.5" y="3332.5" as="sourcePoint" />
            <mxPoint x="632.5" y="4460" as="targetPoint" />
            <Array as="points">
              <mxPoint x="122.5" y="4460" />
            </Array>
          </mxGeometry>
        </mxCell>
        <mxCell id="c6fzyAOVtFj8KL9Nxf8r-99" value="&lt;font style=&quot;font-size: 17px;&quot;&gt;countNum = 1 digit&lt;/font&gt;" style="shape=document;whiteSpace=wrap;html=1;boundedLbl=1;fillColor=#fff2cc;strokeColor=#d6b656;" vertex="1" parent="1">
          <mxGeometry x="60" y="3237.5" width="150" height="95" as="geometry" />
        </mxCell>
        <mxCell id="c6fzyAOVtFj8KL9Nxf8r-100" style="edgeStyle=orthogonalEdgeStyle;rounded=0;orthogonalLoop=1;jettySize=auto;html=1;entryX=0.387;entryY=-0.005;entryDx=0;entryDy=0;entryPerimeter=0;" edge="1" parent="1" source="c6fzyAOVtFj8KL9Nxf8r-95" target="c6fzyAOVtFj8KL9Nxf8r-99">
          <mxGeometry relative="1" as="geometry" />
        </mxCell>
        <mxCell id="mO8eiZJf75P6K3L8JXbB-3" style="edgeStyle=orthogonalEdgeStyle;rounded=0;orthogonalLoop=1;jettySize=auto;html=1;" edge="1" parent="1" source="c6fzyAOVtFj8KL9Nxf8r-102" target="mO8eiZJf75P6K3L8JXbB-1">
          <mxGeometry relative="1" as="geometry">
            <Array as="points">
              <mxPoint x="368" y="4430" />
            </Array>
          </mxGeometry>
        </mxCell>
        <mxCell id="c6fzyAOVtFj8KL9Nxf8r-102" value="&lt;font style=&quot;font-size: 17px;&quot;&gt;countNum = 2 digit&lt;/font&gt;" style="shape=document;whiteSpace=wrap;html=1;boundedLbl=1;fillColor=#fff2cc;strokeColor=#d6b656;" vertex="1" parent="1">
          <mxGeometry x="292.5" y="3570" width="150" height="95" as="geometry" />
        </mxCell>
        <mxCell id="c6fzyAOVtFj8KL9Nxf8r-106" style="edgeStyle=orthogonalEdgeStyle;rounded=0;orthogonalLoop=1;jettySize=auto;html=1;" edge="1" parent="1" source="c6fzyAOVtFj8KL9Nxf8r-104" target="c6fzyAOVtFj8KL9Nxf8r-105">
          <mxGeometry relative="1" as="geometry" />
        </mxCell>
        <mxCell id="c6fzyAOVtFj8KL9Nxf8r-104" value="num=100||num&amp;gt;100&amp;amp;&amp;amp;num&amp;lt;1000" style="rhombus;whiteSpace=wrap;html=1;fontSize=16;fillColor=#f8cecc;strokeColor=#b85450;" vertex="1" parent="1">
          <mxGeometry x="840" y="3507" width="262.5" height="290" as="geometry" />
        </mxCell>
        <mxCell id="c6fzyAOVtFj8KL9Nxf8r-105" value="&lt;font style=&quot;font-size: 17px;&quot;&gt;countNum = 3 digit&lt;/font&gt;" style="shape=document;whiteSpace=wrap;html=1;boundedLbl=1;fillColor=#fff2cc;strokeColor=#d6b656;" vertex="1" parent="1">
          <mxGeometry x="677" y="3820" width="150" height="95" as="geometry" />
        </mxCell>
        <mxCell id="c6fzyAOVtFj8KL9Nxf8r-107" value="num=1000||num&amp;gt;1000&amp;amp;&amp;amp;num&amp;lt;9999" style="rhombus;whiteSpace=wrap;html=1;fontSize=16;fillColor=#f8cecc;strokeColor=#b85450;" vertex="1" parent="1">
          <mxGeometry x="1150" y="3760" width="282.5" height="310" as="geometry" />
        </mxCell>
        <mxCell id="c6fzyAOVtFj8KL9Nxf8r-108" style="edgeStyle=orthogonalEdgeStyle;rounded=0;orthogonalLoop=1;jettySize=auto;html=1;entryX=0.524;entryY=0.003;entryDx=0;entryDy=0;entryPerimeter=0;" edge="1" parent="1" source="c6fzyAOVtFj8KL9Nxf8r-104" target="c6fzyAOVtFj8KL9Nxf8r-107">
          <mxGeometry relative="1" as="geometry">
            <Array as="points">
              <mxPoint x="1291" y="3652" />
              <mxPoint x="1291" y="3761" />
            </Array>
          </mxGeometry>
        </mxCell>
        <mxCell id="mO8eiZJf75P6K3L8JXbB-5" style="edgeStyle=orthogonalEdgeStyle;rounded=0;orthogonalLoop=1;jettySize=auto;html=1;exitX=0.513;exitY=0.905;exitDx=0;exitDy=0;exitPerimeter=0;entryX=1;entryY=0.65;entryDx=0;entryDy=0;entryPerimeter=0;" edge="1" parent="1" source="c6fzyAOVtFj8KL9Nxf8r-109" target="mO8eiZJf75P6K3L8JXbB-1">
          <mxGeometry relative="1" as="geometry">
            <mxPoint x="720" y="4470" as="targetPoint" />
            <Array as="points">
              <mxPoint x="1007" y="4480" />
              <mxPoint x="720" y="4480" />
              <mxPoint x="720" y="4472" />
            </Array>
          </mxGeometry>
        </mxCell>
        <mxCell id="c6fzyAOVtFj8KL9Nxf8r-109" value="&lt;font style=&quot;font-size: 17px;&quot;&gt;countNum = 4 digit&lt;/font&gt;" style="shape=document;whiteSpace=wrap;html=1;boundedLbl=1;fillColor=#fff2cc;strokeColor=#d6b656;" vertex="1" parent="1">
          <mxGeometry x="930" y="4120" width="150" height="95" as="geometry" />
        </mxCell>
        <mxCell id="c6fzyAOVtFj8KL9Nxf8r-110" style="edgeStyle=orthogonalEdgeStyle;rounded=0;orthogonalLoop=1;jettySize=auto;html=1;entryX=0.38;entryY=-0.032;entryDx=0;entryDy=0;entryPerimeter=0;" edge="1" parent="1" source="c6fzyAOVtFj8KL9Nxf8r-107" target="c6fzyAOVtFj8KL9Nxf8r-109">
          <mxGeometry relative="1" as="geometry" />
        </mxCell>
        <mxCell id="mO8eiZJf75P6K3L8JXbB-1" value="" style="rounded=1;whiteSpace=wrap;html=1;fillColor=#f5f5f5;fontColor=#333333;strokeColor=#666666;" vertex="1" parent="1">
          <mxGeometry x="570" y="4420" width="140" height="80" as="geometry" />
        </mxCell>
        <mxCell id="mO8eiZJf75P6K3L8JXbB-4" style="edgeStyle=orthogonalEdgeStyle;rounded=0;orthogonalLoop=1;jettySize=auto;html=1;entryX=0.886;entryY=0;entryDx=0;entryDy=0;entryPerimeter=0;" edge="1" parent="1" source="c6fzyAOVtFj8KL9Nxf8r-105" target="mO8eiZJf75P6K3L8JXbB-1">
          <mxGeometry relative="1" as="geometry" />
        </mxCell>
      </root>
    </mxGraphModel>
  </diagram>
</mxfile>
